C:\Users\r0593348\3dpredictsim\Results\batch_windlass\Pog_s1_tmt_bCst_d05_k800_WL40_ig24_pas_GRF.mot
nRows=10
nColumns=19

name C:\Users\r0593348\3dpredictsim\Results\batch_windlass\Pog_s1_tmt_bCst_d05_k800_WL40_ig24_pas_GRF.mot
datacolumns 19
datarows 10
range 0.0000000000 0.0965509095
endheader
time 	ground_force_vx	ground_force_vy	ground_force_vz	ground_force_px	ground_force_py	ground_force_pz	1_ground_force_vx	1_ground_force_vy	1_ground_force_vz	1_ground_force_px	1_ground_force_py	1_ground_force_pz	ground_torque_x	ground_torque_y	ground_torque_z	1_ground_torque_x	1_ground_torque_y	1_ground_torque_z
        0.0000000000	      -40.1274385143	       25.6110397894	        7.0008774870	        0.1301643016	        0.0000000000	        0.0552224243	       98.8935306491	      454.1497771420	        5.3634941516	       -0.3263444194	        0.0000000000	       -0.0341782842	        0.0000000000	        0.0000000000	        0.0000000000	        0.0000000000	        0.0000000000	        0.0000000000	
        0.0107278788	      -73.2621194792	       51.7289974028	       14.0836000564	        0.1426657289	        0.0000000000	        0.0520901942	       71.3220816157	      360.3430107833	        2.3760235225	       -0.3206040406	        0.0000000000	       -0.0314568161	        0.0000000000	        0.0000000000	        0.0000000000	        0.0000000000	        0.0000000000	        0.0000000000	
        0.0214557577	     -141.3900670350	      120.6565419728	       30.7032039585	        0.1570430155	        0.0000000000	        0.0510482386	       39.4735550399	      252.8117276167	       -5.5849785017	       -0.3110096845	        0.0000000000	       -0.0264878943	        0.0000000000	        0.0000000000	        0.0000000000	        0.0000000000	        0.0000000000	        0.0000000000	
        0.0321836365	     -142.3102572224	      290.6031037282	       33.6956217227	        0.1726346013	        0.0000000000	        0.0519171973	       16.6901286077	      172.4254734318	      -14.1554679053	       -0.2989523757	        0.0000000000	       -0.0194230529	        0.0000000000	        0.0000000000	        0.0000000000	        0.0000000000	        0.0000000000	        0.0000000000	
        0.0429115153	      -93.3836049498	      593.8346431179	       -1.1838737977	        0.1817156358	        0.0000000000	        0.0514795889	        2.2982820385	      138.7861365353	      -15.7624806136	       -0.2995921203	        0.0000000000	       -0.0196349895	        0.0000000000	        0.0000000000	        0.0000000000	        0.0000000000	        0.0000000000	        0.0000000000	
        0.0536393941	     -115.7976960228	      877.5449637573	      -18.2173461968	        0.1923373904	        0.0000000000	        0.0505657600	       -4.6767836691	       94.3478921461	      -12.6814533825	       -0.2996241862	        0.0000000000	       -0.0195222456	        0.0000000000	        0.0000000000	        0.0000000000	        0.0000000000	        0.0000000000	        0.0000000000	
        0.0643672730	     -138.8357480557	     1013.9033083168	      -20.3240927048	        0.2001190576	        0.0000000000	        0.0493694104	      -15.4969649948	       41.0890572513	       -7.3116467659	       -0.3012339718	        0.0000000000	       -0.0194447401	        0.0000000000	        0.0000000000	        0.0000000000	        0.0000000000	        0.0000000000	        0.0000000000	
        0.0750951518	     -137.7330737648	     1007.7949013116	      -18.1862750125	        0.2042618190	        0.0000000000	        0.0485396308	        0.1314785825	       -0.1303326947	        0.0061281933	        0.0000000000	        0.0000000000	        0.0000000000	        0.0000000000	        0.0000000000	        0.0000000000	        0.0000000000	        0.0000000000	        0.0000000000	
        0.0858230306	     -118.7036104152	      940.0879753526	      -16.7497766744	        0.2069856204	        0.0000000000	        0.0479520695	        0.0002810474	       -0.0002328017	       -0.0000034657	        0.0000000000	        0.0000000000	        0.0000000000	        0.0000000000	        0.0000000000	        0.0000000000	        0.0000000000	        0.0000000000	        0.0000000000	
        0.0965509095	     -100.8625097112	      863.1686460265	      -16.5504726826	        0.2096489287	        0.0000000000	        0.0475189238	        0.0000537122	       -0.0000392100	       -0.0000015068	        0.0000000000	        0.0000000000	        0.0000000000	        0.0000000000	        0.0000000000	        0.0000000000	        0.0000000000	        0.0000000000	        0.0000000000	
